<?xml version="1.0" encoding="UTF-8" standalone="no"?>
<!DOCTYPE svg PUBLIC "-//W3C//DTD SVG 1.1//EN" "http://www.w3.org/Graphics/SVG/1.1/DTD/svg11.dtd">
<svg width="100%" height="100%" viewBox="0 0 2599 2599" version="1.1" xmlns="http://www.w3.org/2000/svg" xmlns:xlink="http://www.w3.org/1999/xlink" xml:space="preserve" xmlns:serif="http://www.serif.com/" style="fill-rule:evenodd;clip-rule:evenodd;stroke-linejoin:round;stroke-miterlimit:2;">
    <g id="Artboard1" transform="matrix(1.28316,0,0,1.03219,-292.105,-511.191)">
        <rect x="227.645" y="495.247" width="2025.02" height="2517.38" style="fill:none;"/>
        <g transform="matrix(3.2472,0,0,4.04619,-206.088,89.6754)">
            <g transform="matrix(0.875885,0,0,0.873831,-1423.58,41.6196)">
                <path d="M2133.8,771.2C1980.68,771.2 1856.37,646.885 1856.37,493.763C1856.37,340.641 1980.68,216.326 2133.8,216.326L2133.8,771.2Z" style="fill:#bada55;"/>
            </g>
            <g transform="matrix(1,0,0,0.997656,-1351.97,17.8977)">
                <path d="M1797.35,213.254C1931.47,213.254 2040.35,322.14 2040.35,456.257C2040.35,590.374 1931.47,699.26 1797.35,699.26L1797.35,213.254Z" style="fill:#88ba1c;"/>
                <path d="M1798.13,213.255C1931.9,213.69 2040.35,322.408 2040.35,456.257C2040.35,590.374 1931.47,699.26 1797.35,699.26L1797.35,213.254M1798.22,698.39C1864.69,698.156 1924.88,671.071 1968.53,627.434C2012.36,583.607 2039.5,523.079 2039.51,456.257C2039.53,409.894 2026.47,366.564 2003.88,329.706C1993.9,313.425 1982.06,298.407 1968.66,284.942C1946.38,262.556 1919.78,244.48 1890.2,232.079C1861.61,220.093 1830.26,213.39 1797.35,213.254C1797.35,213.254 1797.54,253.324 1797.76,310.455C1797.83,328.443 1797.9,348.123 1797.97,368.776C1798.01,381.426 1798.04,394.441 1798.07,407.656C1798.1,423.025 1798.12,438.664 1798.13,454.313C1798.16,477.914 1798.16,501.539 1798.17,524.298C1798.21,613.561 1798.22,689.501 1798.22,698.39Z" style="fill:#bada55;"/>
            </g>
            <g transform="matrix(0.875885,0,0,1.36231,-51.0708,-26.3721)">
                <g>
                    <g transform="matrix(1.84356,0,0,1.1943,-619.105,-202.798)">
                        <path d="M643.391,282.552L643.391,439.043C617.487,439.137 592.09,442.231 567.173,448.133C558.299,417.65 566.424,368.041 567.173,326.731C592.754,298.299 618.158,283.661 643.391,282.552Z" style="fill:#b17733;"/>
                    </g>
                    <g transform="matrix(-1.84356,0,0,1.1943,1760.56,-202.798)">
                        <path d="M643.391,282.552L643.391,439.043C617.487,439.137 592.09,442.231 567.173,448.133C558.299,417.65 566.424,368.041 567.173,326.731C592.754,298.299 618.158,283.661 643.391,282.552Z" style="fill:#b17733;"/>
                    </g>
                </g>
                <g>
                    <g transform="matrix(1.86191,0,0,1.1943,-630.949,-202.798)">
                        <path d="M617.089,466.951C616.886,482.328 615.468,497.263 607.103,509.671L643.291,540.185L680.891,509.948C673.034,497.851 672.563,483.673 672.847,468.616L617.089,466.951Z" style="fill:#e1aa88;"/>
                    </g>
                    <g transform="matrix(1.86191,0,0,1.1943,-630.949,-202.798)">
                        <path d="M616.218,482.549C616.806,477.457 617.019,472.23 617.089,466.951L672.847,468.616C672.668,478.096 672.789,487.227 674.864,495.711C649.866,496.775 630.388,492.318 616.218,482.549Z" style="fill:#c48767;fill-opacity:0.34;"/>
                    </g>
                </g>
                <g>
                    <g transform="matrix(1.86191,0,0,1.1943,-628.559,-203.137)">
                        <path d="M580.224,377.313C575.577,369.888 570.299,369.077 564.468,374.079C557.939,381.122 557.424,394.127 561.139,404.165C563.284,409.96 566.982,412.65 570.903,413.707C575.772,414.355 580.238,413.874 583.331,412.154L580.224,377.313Z" style="fill:#e09971;"/>
                    </g>
                    <g transform="matrix(1.86191,0,0,1.1943,-628.559,-203.137)">
                        <path d="M563.894,389.205C565.395,384.911 567.754,379.975 569.545,384.57C567.401,387.088 567.057,389.077 567.029,390.972C569.391,389.622 571.26,389.159 572.381,390.042C572.269,397.166 563.57,394.97 571.45,402.375C573.343,403.837 570.399,405.609 567.494,405.539L569.077,406.843L572.055,407.598C573.441,407.005 574.284,405.947 574.801,404.609L575.287,401.082C573.944,401.016 572.871,400.626 572.148,399.815C571.617,399.017 571.485,397.991 571.823,396.697C572.702,395.252 573.82,394.522 575.196,394.567L575.287,382.316C574.499,379.877 572.952,379.108 570.924,379.4C568.309,379.67 566.339,381.084 564.842,383.34C564.169,384.701 563.821,386.603 563.894,389.205Z" style="fill:#cc8569;fill-opacity:0.25;"/>
                    </g>
                    <g transform="matrix(1.86191,0,0,1.1943,-628.559,-203.137)">
                        <path d="M574.365,382.023C572.946,379.528 569.675,379.348 567.292,381.203C566.362,381.928 565.568,382.96 565.029,384.285C564.886,384.638 564.76,385.01 564.647,385.402C564.6,385.563 564.553,385.726 564.508,385.893C564.352,386.482 564.234,387.105 564.151,387.782C564.076,388.406 564.016,389.049 564.015,389.751C563.833,389.06 563.7,388.413 563.637,387.777C563.566,387.056 563.583,386.378 563.651,385.735C563.671,385.547 563.699,385.363 563.734,385.183C563.819,384.738 563.943,384.319 564.087,383.922C564.648,382.382 565.564,381.192 566.62,380.35C569.777,377.836 574.238,378.442 575.719,382.278C575.781,382.44 575.764,382.623 575.674,382.771C575.583,382.919 575.428,383.017 575.256,383.036C572.834,383.284 570.695,383.923 569.261,385.593C568.794,386.137 568.413,386.793 568.093,387.57C567.969,387.87 567.852,388.185 567.74,388.52C567.567,389.034 567.407,389.579 567.267,390.187C567.141,390.734 567.016,391.3 566.924,391.932C566.833,391.29 566.77,390.704 566.759,390.134C566.747,389.475 566.793,388.872 566.889,388.307C566.954,387.923 567.05,387.563 567.164,387.224C567.472,386.305 567.926,385.548 568.453,384.911C569.879,383.19 571.968,382.385 574.365,382.023Z" style="fill:#b26f4f;"/>
                    </g>
                    <g transform="matrix(1.86191,0,0,1.1943,-628.559,-203.137)">
                        <path d="M574.696,401.494C573.652,401.459 572.854,401.159 572.276,400.712C571.367,400.008 570.968,398.936 571.043,397.848C571.086,397.239 571.262,396.618 571.598,396.081C571.814,395.735 572.083,395.417 572.416,395.165C572.808,394.868 573.258,394.643 573.776,394.544C574.221,394.459 574.684,394.463 575.196,394.568C574.712,394.639 574.31,394.796 573.937,394.996C573.553,395.202 573.25,395.473 572.982,395.776C572.768,396.017 572.598,396.284 572.455,396.565C572.24,396.989 572.109,397.448 572.09,397.906C572.06,398.644 572.32,399.371 572.942,399.84C573.451,400.223 574.187,400.428 575.167,400.372C575.457,400.357 575.711,400.567 575.75,400.855C576.207,404.231 574.933,406.784 573.006,407.722C571.908,408.256 570.576,408.315 569.217,407.66C568.948,407.531 568.676,407.376 568.414,407.18C568.27,407.072 568.129,406.955 567.991,406.823C567.702,406.543 567.426,406.232 567.165,405.86C566.946,405.547 566.757,405.216 566.561,404.84C566.879,405.108 567.182,405.323 567.488,405.539C567.832,405.782 568.158,405.982 568.482,406.166C568.628,406.249 568.771,406.324 568.912,406.399C569.156,406.53 569.393,406.643 569.627,406.74C570.693,407.177 571.689,407.164 572.521,406.743C573.222,406.388 573.794,405.759 574.18,404.926C574.61,404 574.809,402.831 574.696,401.494Z" style="fill:#b26f4f;"/>
                    </g>
                    <g transform="matrix(-1.86191,0,0,1.1943,1769.42,-203.137)">
                        <path d="M580.224,377.313C575.577,369.888 570.299,369.077 564.468,374.079C557.939,381.122 557.424,394.127 561.139,404.165C563.284,409.96 566.982,412.65 570.903,413.707C575.772,414.355 580.238,413.874 583.331,412.154L580.224,377.313Z" style="fill:#e09971;"/>
                    </g>
                    <g transform="matrix(-1.86191,0,0,1.1943,1769.42,-203.137)">
                        <path d="M563.894,389.205C565.395,384.911 567.754,379.975 569.545,384.57C567.401,387.088 567.057,389.077 567.029,390.972C569.391,389.622 571.26,389.159 572.381,390.042C572.269,397.166 563.57,394.97 571.45,402.375C573.343,403.837 570.399,405.609 567.494,405.539L569.077,406.843L572.055,407.598C573.441,407.005 574.284,405.947 574.801,404.609L575.287,401.082C573.944,401.016 572.871,400.626 572.148,399.815C571.617,399.017 571.485,397.991 571.823,396.697C572.702,395.252 573.82,394.522 575.196,394.567L575.287,382.316C574.499,379.877 572.952,379.108 570.924,379.4C568.309,379.67 566.339,381.084 564.842,383.34C564.169,384.701 563.821,386.603 563.894,389.205Z" style="fill:#cc8569;fill-opacity:0.25;"/>
                    </g>
                    <g transform="matrix(-1.86191,0,0,1.1943,1769.42,-203.137)">
                        <path d="M574.365,382.023C571.968,382.385 569.879,383.19 568.453,384.911C567.926,385.548 567.472,386.305 567.164,387.224C567.05,387.563 566.954,387.923 566.889,388.307C566.793,388.872 566.747,389.475 566.759,390.134C566.77,390.704 566.833,391.29 566.924,391.932C567.016,391.3 567.141,390.734 567.267,390.187C567.407,389.579 567.567,389.034 567.74,388.52C567.852,388.185 567.969,387.87 568.093,387.57C568.413,386.793 568.794,386.137 569.261,385.593C570.695,383.923 572.834,383.284 575.256,383.036C575.428,383.017 575.583,382.919 575.674,382.771C575.764,382.623 575.781,382.44 575.719,382.278C574.238,378.442 569.777,377.836 566.62,380.35C565.564,381.192 564.648,382.382 564.087,383.922C563.943,384.319 563.819,384.738 563.734,385.183C563.699,385.363 563.671,385.547 563.651,385.735C563.583,386.378 563.566,387.056 563.637,387.777C563.7,388.413 563.833,389.06 564.015,389.751C564.016,389.049 564.076,388.406 564.151,387.782C564.234,387.105 564.352,386.482 564.508,385.893C564.553,385.726 564.6,385.563 564.647,385.402C564.76,385.01 564.886,384.638 565.029,384.285C565.568,382.96 566.362,381.928 567.292,381.203C569.675,379.348 572.946,379.528 574.365,382.023Z" style="fill:#b26f4f;"/>
                    </g>
                    <g transform="matrix(-1.86191,0,0,1.1943,1769.42,-203.137)">
                        <path d="M574.696,401.494C574.809,402.831 574.61,404 574.18,404.926C573.794,405.759 573.222,406.388 572.521,406.743C571.689,407.164 570.693,407.177 569.627,406.74C569.393,406.643 569.156,406.53 568.912,406.399C568.771,406.324 568.628,406.249 568.482,406.166C568.158,405.982 567.832,405.782 567.488,405.539C567.182,405.323 566.879,405.108 566.561,404.84C566.757,405.216 566.946,405.547 567.165,405.86C567.426,406.232 567.702,406.543 567.991,406.823C568.129,406.955 568.27,407.072 568.414,407.18C568.676,407.376 568.948,407.531 569.217,407.66C570.576,408.315 571.908,408.256 573.006,407.722C574.933,406.784 576.207,404.231 575.75,400.855C575.711,400.567 575.457,400.357 575.167,400.372C574.187,400.428 573.451,400.223 572.942,399.84C572.32,399.371 572.06,398.644 572.09,397.906C572.109,397.448 572.24,396.989 572.455,396.565C572.598,396.284 572.768,396.017 572.982,395.776C573.25,395.473 573.553,395.202 573.937,394.996C574.31,394.796 574.712,394.639 575.196,394.568C574.684,394.463 574.221,394.459 573.776,394.544C573.258,394.643 572.808,394.868 572.416,395.165C572.083,395.417 571.814,395.735 571.598,396.081C571.262,396.618 571.086,397.239 571.043,397.848C570.968,398.936 571.367,400.008 572.276,400.712C572.854,401.159 573.652,401.459 574.696,401.494Z" style="fill:#b26f4f;"/>
                    </g>
                </g>
                <g>
                    <g transform="matrix(1.86191,0,0,1.1943,-629.815,-202.798)">
                        <path d="M644.472,486.296C626.591,485.068 594.774,459.685 586.012,441.67C574.188,425.36 572.269,368.955 580.043,327.911C598.797,300.303 620.446,288.616 644.682,291.132L644.966,291.103C669.087,288.707 690.64,300.411 709.321,327.911C717.095,368.955 715.176,425.36 703.352,441.67C694.556,459.756 662.523,485.266 644.682,486.309L644.472,486.296Z" style="fill:#f3bf9c;"/>
                    </g>
                    <g transform="matrix(1.86191,0,0,1.1943,-630.949,-202.798)">
                        <path d="M583.353,324.073L592.955,312.717L645.291,295.033L707.448,324.375C708.28,325.522 709.108,326.701 709.93,327.911C710.343,330.095 710.729,332.322 711.087,334.579L710.573,337.406C693.2,329.306 671.586,314.609 645.406,313.246C625.061,312.186 609.698,318.892 594.134,335.048C569.054,405.616 581.822,452.418 643.291,478.602C657.964,481.077 675.906,472.279 691.815,458.027C678.227,472.198 658.101,485.561 645.291,486.309L645.081,486.296C627.2,485.068 595.383,459.685 586.621,441.67C574.797,425.36 572.878,368.955 580.652,327.911C581.545,326.597 582.444,325.319 583.353,324.073Z" style="fill:#d79971;fill-opacity:0.5;"/>
                    </g>
                </g>
                <g>
                    <g transform="matrix(1.38948,0.794984,-1.23938,0.891259,101.73,-595.274)">
                        <path d="M589.532,282.125C588.912,272.282 592.284,262.971 598.764,254.075C596.578,264.668 595.559,275.261 598.587,285.854L593.261,290.799C583.66,283.468 577.07,282.662 570.358,281.593C576.954,280.748 583.41,280.602 589.532,282.125Z" style="fill:#b17733;"/>
                    </g>
                    <g transform="matrix(1.86191,0,0,1.1943,-630.949,-192.265)">
                        <path d="M645.155,303.051C623.77,289.218 584.218,323.298 576.232,379.734C541.471,277.755 614.855,252.876 645.406,265.701L645.766,265.552C676.527,253.072 749.204,278.153 714.579,379.734C706.562,323.077 666.731,288.952 645.406,303.216L645.155,303.051Z" style="fill:#c59051;"/>
                    </g>
                    <g transform="matrix(1.86191,0,0,1.1943,-630.949,-202.798)">
                        <path d="M645.357,310.661C659.706,303.756 674.837,310.518 687.403,324.395C692.617,330.153 697.41,337.122 701.476,344.821C703.111,347.917 704.631,351.131 706.002,354.434C708.25,359.851 710.122,365.493 711.573,371.201C713.04,376.974 714.049,382.81 714.593,388.554C713.736,382.872 712.373,377.136 710.637,371.463C708.931,365.889 706.837,360.397 704.45,355.106C703,351.892 701.451,348.752 699.8,345.72C695.717,338.223 691.025,331.395 685.892,325.767C673.834,312.546 659.454,305.862 645.769,312.815C645.431,312.986 645.027,312.964 644.711,312.756C639.533,309.352 633.624,308.81 627.516,310.499C619.964,312.587 612.13,318.052 604.909,325.81C600.443,330.609 596.234,336.295 592.443,342.598C590.093,346.506 587.91,350.652 585.928,354.98C583.532,360.21 581.436,365.7 579.744,371.377C578.079,376.961 576.778,382.708 575.989,388.554C576.468,382.649 577.426,376.808 578.838,371.129C580.283,365.319 582.178,359.681 584.443,354.326C586.326,349.876 588.471,345.625 590.806,341.628C594.589,335.149 598.888,329.346 603.423,324.433C610.907,316.322 619.094,310.661 626.955,308.474C633.472,306.66 639.782,307.211 645.357,310.661Z" style="fill:#b17733;"/>
                    </g>
                    <g transform="matrix(1.86191,0,0,1.1943,-630.949,-202.798)">
                        <path d="M580.771,294.74C584.127,304.422 589.687,313.989 599.331,323.337C584.647,319.625 577.04,314.754 572.481,309.386C574.701,303.843 577.52,298.974 580.771,294.74ZM710.041,294.74C713.292,298.976 716.11,303.843 718.33,309.386C713.772,314.754 706.164,319.625 691.481,323.337C701.124,313.989 706.684,304.422 710.041,294.74Z" style="fill:#d5a975;fill-opacity:0.46;"/>
                    </g>
                </g>
                <g>
                    <g transform="matrix(1.86191,0,0,1.1943,-630.949,-202.798)">
                        <path d="M498.097,630.02C505.599,593.083 512.506,553.786 526.042,541.001C540.495,527.349 556.466,525.931 609.695,505.459C620.959,517.442 632.158,523.875 643.291,524.432L643.552,524.418C654.599,523.774 667.131,517.207 678.307,505.317C731.536,525.789 746.087,527.349 760.54,541.001C774.076,553.786 780.983,593.083 788.485,630.02L754.076,630.02C759.317,598.466 758.528,572.785 742.502,560.789L733.969,630.02L553.642,630.02L545.108,560.789C529.082,572.785 528.294,598.466 533.535,630.02L498.097,630.02Z" style="fill:#0f80ac;"/>
                    </g>
                    <g transform="matrix(1.86191,0,0,1.1943,-628.367,-178.779)">
                        <path d="M552.255,609.909L532.148,609.909C526.907,578.354 527.695,552.673 543.721,540.678L552.255,609.909Z" style="fill:#1d708e;"/>
                    </g>
                    <g transform="matrix(-1.86191,0,0,1.1943,1763.89,-178.779)">
                        <path d="M552.255,609.909L543.721,540.678C527.695,552.673 526.907,578.354 532.148,609.909L552.255,609.909Z" style="fill:#1d708e;"/>
                    </g>
                </g>
                <g>
                    <g transform="matrix(1.86924,0.1292,-0.201424,1.199,-562.278,-279.818)">
                        <path d="M592.337,366.874C592.732,357.345 627.861,351.984 629.975,359.631C626.164,361.466 617.958,361.535 607.145,361.855C601.258,362.029 596.642,363.829 592.337,366.874Z" style="fill:#946024;"/>
                    </g>
                    <g transform="matrix(-1.86924,0.1292,0.201424,1.199,1699.28,-279.818)">
                        <path d="M592.337,366.874C592.732,357.345 627.861,351.984 629.975,359.631C626.164,361.466 617.958,361.535 607.145,361.855C601.258,362.029 596.642,363.829 592.337,366.874Z" style="fill:#946024;"/>
                    </g>
                    <g transform="matrix(1.88006,0,0,1.20594,-639.813,-206.955)">
                        <ellipse cx="619.607" cy="394.144" rx="5.539" ry="10.51" style="fill:#2c211d;"/>
                    </g>
                    <g transform="matrix(-1.88006,0,0,1.20594,1776.82,-206.955)">
                        <ellipse cx="619.607" cy="394.144" rx="5.539" ry="10.51" style="fill:#2c211d;"/>
                    </g>
                    <g transform="matrix(1.46452,0,0,1.20594,-373.845,-206.955)">
                        <path d="M633.091,421.484C633.266,422.276 634.144,422.886 635.378,423.384C637.625,424.29 641.04,424.762 644.47,424.834C647.13,424.89 649.8,424.702 651.956,424.268C652.264,424.207 652.561,424.137 652.847,424.07C653.151,423.997 653.443,423.925 653.721,423.848C653.951,423.785 654.17,423.724 654.381,423.659C654.944,423.485 655.425,423.305 655.821,423.075C656.292,422.801 656.637,422.508 656.818,422.123C656.823,422.575 656.629,422.993 656.253,423.404C655.923,423.765 655.453,424.086 654.872,424.388C654.659,424.499 654.429,424.599 654.184,424.695C653.892,424.809 653.579,424.911 653.249,425.005C652.943,425.092 652.621,425.166 652.288,425.238C650.034,425.721 647.231,425.944 644.438,425.901C640.776,425.845 637.132,425.323 634.731,424.36C633.019,423.673 631.921,422.744 631.692,421.644L631.686,421.607C631.418,419.379 631.929,416.668 632.78,413.727C633.432,411.474 634.277,409.082 635.103,406.671C635.912,404.31 636.658,401.925 637.257,399.644C637.319,399.407 637.38,399.172 637.451,398.94C637.523,398.703 637.604,398.473 637.686,398.241C637.814,397.882 637.942,397.54 638.076,397.191C638.216,396.825 638.364,396.49 638.496,396.132C638.563,396.574 638.632,396.997 638.656,397.454C638.68,397.892 638.677,398.326 638.64,398.774C638.611,399.121 638.552,399.468 638.485,399.817C638.387,400.33 638.25,400.843 638.115,401.361C637.063,405.387 635.428,409.612 634.295,413.464C633.413,416.464 632.822,419.23 633.091,421.484Z" style="fill:#b26f4f;"/>
                    </g>
                    <g transform="matrix(1.44681,0,0,1.20594,-362.214,-206.955)">
                        <path d="M636.082,410.754C634.459,414.212 633.545,417.671 633.668,421.129C635.357,424.541 654.208,424.806 656.818,421.697C648.517,422.64 640.96,422.491 635.57,419.165C634.64,416.361 635.259,413.557 636.082,410.754Z" style="fill:#e09971;"/>
                    </g>
                    <g transform="matrix(1.88006,0,0,1.20594,-641.693,-206.955)">
                        <path d="M644.153,451.334C630.283,450.837 619.572,440.384 616.82,433.202C626.683,436.82 635.625,438.553 644.316,438.57L644.52,438.569C653.148,438.526 662.027,436.792 671.813,433.202C669.05,440.412 658.265,450.919 644.316,451.339L644.153,451.334Z" style="fill:#29211f;"/>
                    </g>
                    <g transform="matrix(1.88006,0,0,1.20594,-641.693,-206.955)">
                        <path d="M669.28,434.097C668.072,437.132 666.298,440.364 664.062,443.374C659.076,447.641 652.202,451.101 644.316,451.339L644.153,451.334C636.801,451.07 630.336,448.009 625.475,444.121C623.003,440.947 621.049,437.478 619.741,434.227C628.462,437.148 636.491,438.555 644.316,438.57L644.52,438.569C652.397,438.53 660.484,437.081 669.28,434.097Z" style="fill:#fffeff;"/>
                    </g>
                    <g transform="matrix(1.88006,0,0,1.20594,-641.693,-206.955)">
                        <path d="M621.704,438.369C620.944,436.976 620.286,435.583 619.741,434.227C628.462,437.148 636.491,438.555 644.316,438.57L644.52,438.569C652.397,438.53 660.484,437.081 669.28,434.097C668.777,435.36 668.177,436.657 667.485,437.958C660.94,440.811 652.958,442.864 644.111,443.045L643.871,443.039C635.551,442.837 628.003,440.982 621.704,438.369Z" style="fill:#ced8e4;"/>
                    </g>
                    <g transform="matrix(1.86191,0,0,1.1943,-630.949,-202.798)">
                        <path d="M636.931,458.199C642.006,460.401 647.081,460.543 652.156,458.199C649.627,461.651 647.098,463.572 644.569,463.085C642.023,463.247 639.477,461.07 636.931,458.199Z" style="fill:#e09971;"/>
                    </g>
                </g>
            </g>
        </g>
    </g>
</svg>
