<?xml version="1.0" encoding="UTF-8" standalone="no"?>
<!DOCTYPE svg PUBLIC "-//W3C//DTD SVG 1.1//EN" "http://www.w3.org/Graphics/SVG/1.1/DTD/svg11.dtd">
<svg width="100%" height="100%" viewBox="0 0 68 69" version="1.1" xmlns="http://www.w3.org/2000/svg" xmlns:xlink="http://www.w3.org/1999/xlink" xml:space="preserve" xmlns:serif="http://www.serif.com/" style="fill-rule:evenodd;clip-rule:evenodd;stroke-linejoin:round;stroke-miterlimit:2;">
    <g transform="matrix(1,0,0,1,-3145,-137)">
        <g transform="matrix(1,0,0,1.00235,1649.35,0)">
            <g transform="matrix(0.876325,0,0,1.36299,287.111,-272.21)">
                <g transform="matrix(1,0,0,0.641434,1681.78,239.794)">
                    <g>
                        <g transform="matrix(0.171744,0,0,0.171744,-382.557,72.6805)">
                            <path d="M690.69,128.998L690.782,128.994C814.234,128.994 914.462,229.221 914.462,352.673C914.462,476.126 814.234,576.353 690.782,576.353L690.69,576.349L690.69,436.528L690.782,436.528C727.761,436.395 764.86,426.063 802.09,405.256C802.238,405.172 802.425,405.208 802.531,405.342C802.636,405.476 802.628,405.666 802.511,405.79C791.658,417.101 776.032,426.98 755.812,435.481C754.912,435.859 754.438,436.85 754.708,437.787C757.404,446.687 763.927,453.884 774.289,459.376C775.57,460.051 776.99,460.424 778.438,460.465C814.331,461.411 842.191,448.293 862.698,422.306C864.267,420.301 865.167,417.853 865.27,415.309C867.41,360.639 858.888,306.427 824.503,253.73C822.876,251.251 820.848,249.06 818.501,247.247C792.967,227.565 762.713,221.103 734.537,223.216C734.115,223.249 733.748,223.517 733.588,223.908C733.429,224.3 733.504,224.748 733.782,225.066C739.857,231.36 785.595,242.027 810.608,260.983C810.692,261.05 810.713,261.17 810.656,261.262C810.599,261.353 810.482,261.388 810.385,261.342C769.508,242.227 730.432,232.559 691.697,232.529L690.69,232.532L690.69,128.998Z" style="fill:#88ba1c;"/>
                        </g>
                        <g transform="matrix(0.171744,0,0,0.171744,-382.557,72.6805)">
                            <circle cx="745.443" cy="359.649" r="31.354" style="fill:#88ba1c;"/>
                        </g>
                    </g>
                </g>
                <g transform="matrix(1,0,0,0.641434,1681.78,239.794)">
                    <g transform="matrix(0.430771,0,0,0.525217,-841.617,65.2273)">
                        <path d="M1341.04,56.373L1341.04,90.228C1325.49,90.192 1309.81,93.354 1293.39,99.649C1293.36,99.664 1293.31,99.652 1293.29,99.622C1293.26,99.592 1293.27,99.553 1293.31,99.531C1303.28,93.333 1321.51,89.845 1323.94,87.787C1324.05,87.683 1324.08,87.536 1324.01,87.408C1323.95,87.28 1323.8,87.192 1323.63,87.182C1312.4,86.491 1300.34,88.604 1290.16,95.04C1289.22,95.632 1288.41,96.349 1287.77,97.16C1274.06,114.391 1270.66,132.118 1271.51,149.995C1271.55,150.827 1271.91,151.628 1272.54,152.283C1280.71,160.781 1291.82,165.071 1306.13,164.761C1306.71,164.748 1307.28,164.626 1307.79,164.405C1311.92,162.609 1314.52,160.256 1315.59,157.346C1315.7,157.039 1315.51,156.715 1315.15,156.592C1307.09,153.812 1300.86,150.581 1296.53,146.883C1296.49,146.842 1296.48,146.78 1296.53,146.736C1296.57,146.692 1296.64,146.681 1296.7,146.708C1311.43,153.459 1326.11,156.838 1340.73,156.932L1341.04,156.934L1341.04,202.655C1291.85,202.643 1251.9,169.874 1251.9,129.514C1251.9,89.153 1291.85,56.384 1341.04,56.373Z" style="fill:#bada55;"/>
                    </g>
                    <g transform="matrix(0.430771,0,0,0.525217,-841.617,65.2273)">
                        <ellipse cx="1319.48" cy="131.795" rx="12.501" ry="10.253" style="fill:#bada55;"/>
                    </g>
                </g>
            </g>
        </g>
    </g>
</svg>
