<?xml version="1.0" encoding="UTF-8" standalone="no"?>
<!DOCTYPE svg PUBLIC "-//W3C//DTD SVG 1.1//EN" "http://www.w3.org/Graphics/SVG/1.1/DTD/svg11.dtd">
<svg width="100%" height="100%" viewBox="0 0 66 67" version="1.1" xmlns="http://www.w3.org/2000/svg" xmlns:xlink="http://www.w3.org/1999/xlink" xml:space="preserve" xmlns:serif="http://www.serif.com/" style="fill-rule:evenodd;clip-rule:evenodd;stroke-linejoin:round;stroke-miterlimit:2;">
    <g transform="matrix(1,0,0,1,-3146,-226)">
        <g transform="matrix(1,0,0,1.00235,1649.35,0)">
            <g transform="matrix(0.876325,0,0,1.36299,610.299,-184.881)">
                <g transform="matrix(1,0,0,1,-4.54747e-13,0.00176637)">
                    <g>
                        <g transform="matrix(0.20231,0,0,0.129769,809.27,265.887)">
                            <path d="M1185.18,275.44C1287.72,275.577 1370.92,358.869 1370.92,461.44C1370.92,564.011 1287.72,647.303 1185.18,647.439L1185.18,526.131L1243.61,483.61C1244.5,483.644 1245.4,483.661 1246.3,483.661C1285.24,483.661 1316.86,452.042 1316.86,413.096C1316.86,374.15 1285.24,342.531 1246.3,342.531C1220,342.531 1197.04,356.951 1185.18,378.466L1185.18,275.44Z" style="fill:#00abce;"/>
                        </g>
                        <g transform="matrix(1,0,0,0.641434,-197.399,181.562)">
                            <path d="M1258.75,205.676C1263.94,205.676 1268.15,209.889 1268.15,215.079C1268.15,220.268 1263.94,224.482 1258.75,224.482C1253.56,224.482 1249.35,220.268 1249.35,215.079C1249.35,209.889 1253.56,205.676 1258.75,205.676ZM1258.7,208.019C1262.64,208.019 1265.85,211.223 1265.85,215.169C1265.85,219.115 1262.64,222.319 1258.7,222.319C1254.75,222.319 1251.55,219.115 1251.55,215.169C1251.55,211.223 1254.75,208.019 1258.7,208.019Z" style="fill:#00abce;"/>
                        </g>
                    </g>
                </g>
                <g>
                    <g transform="matrix(0.616983,0,0,0.641434,276.861,182.369)">
                        <path d="M1251.55,261.189L1251.46,261.191C1223.5,261.191 1199.92,249.564 1192.72,233.724L1216.19,239.721C1217.7,244.629 1224.7,248.345 1233.09,248.345C1242.58,248.345 1250.28,243.591 1250.28,237.736C1250.28,237.564 1250.28,237.393 1250.26,237.223L1251.55,236.647L1251.55,261.189Z" style="fill:#01d1e5;"/>
                    </g>
                    <g transform="matrix(0.616983,0,0,0.641434,276.861,182.369)">
                        <path d="M1251.55,185.93L1251.55,206.773C1249.54,208.818 1248.45,211.22 1248.45,213.779C1248.45,213.866 1248.45,213.953 1248.45,214.042L1234.12,227.145C1233.78,227.133 1233.43,227.126 1233.09,227.126C1229.63,227.126 1226.41,227.757 1223.71,228.842L1190.68,220.331C1193.34,201.072 1219.56,185.927 1251.46,185.927L1251.55,185.93Z" style="fill:#01d1e5;"/>
                    </g>
                    <g transform="matrix(0.616983,0,0,0.641434,276.861,182.369)">
                        <path d="M1228.33,230.091C1229.77,229.749 1231.34,229.562 1232.98,229.562C1240.15,229.562 1245.98,233.155 1245.98,237.582C1245.98,242.008 1240.15,245.601 1232.98,245.601C1227.88,245.601 1223.46,243.787 1221.33,241.148L1227.1,242.593C1228.73,243.325 1230.74,243.757 1232.9,243.757C1238.36,243.757 1242.79,241.024 1242.79,237.659C1242.79,234.552 1239.02,231.985 1234.14,231.608L1228.33,230.091Z" style="fill:#01d1e5;"/>
                    </g>
                </g>
            </g>
        </g>
    </g>
</svg>
