<?xml version="1.0" encoding="UTF-8" standalone="no"?><!DOCTYPE svg PUBLIC "-//W3C//DTD SVG 1.1//EN" "http://www.w3.org/Graphics/SVG/1.1/DTD/svg11.dtd"><svg width="100%" height="100%" viewBox="0 0 730 834" version="1.1" xmlns="http://www.w3.org/2000/svg" xmlns:xlink="http://www.w3.org/1999/xlink" xml:space="preserve" xmlns:serif="http://www.serif.com/" style="fill-rule:evenodd;clip-rule:evenodd;stroke-linejoin:round;stroke-miterlimit:2;"><g id="Layer1"><path d="M289.167,349.583c-23.75,0 -42.5,20.834 -42.5,46.25c-0,25.417 19.166,46.25 42.5,46.25c23.75,0 42.5,-20.833 42.5,-46.25c0.416,-25.416 -18.75,-46.25 -42.5,-46.25Zm152.083,0c-23.75,0 -42.5,20.834 -42.5,46.25c0,25.417 19.167,46.25 42.5,46.25c23.75,0 42.5,-20.833 42.5,-46.25c0,-25.416 -18.75,-46.25 -42.5,-46.25Z" style="fill:#7289da;fill-rule:nonzero;"/><path d="M643.75,0l-558.333,0c-47.084,0 -85.417,38.333 -85.417,85.833l-0,563.334c-0,47.5 38.333,85.833 85.417,85.833l472.5,-0l-22.084,-77.083l53.334,49.583l50.416,46.667l89.584,79.166l-0,-747.5c-0,-47.5 -38.334,-85.833 -85.417,-85.833Zm-160.833,544.167c-0,-0 -15,-17.917 -27.5,-33.75c54.583,-15.417 75.416,-49.584 75.416,-49.584c-17.083,11.25 -33.333,19.167 -47.916,24.584c-20.834,8.75 -40.834,14.583 -60.417,17.916c-40,7.5 -76.667,5.417 -107.917,-0.416c-23.75,-4.584 -44.166,-11.25 -61.25,-17.917c-9.583,-3.75 -20,-8.333 -30.416,-14.167c-1.25,-0.833 -2.5,-1.25 -3.75,-2.083c-0.834,-0.417 -1.25,-0.833 -1.667,-1.25c-7.5,-4.167 -11.667,-7.083 -11.667,-7.083c0,-0 20,33.333 72.917,49.166c-12.5,15.834 -27.917,34.584 -27.917,34.584c-92.083,-2.917 -127.083,-63.334 -127.083,-63.334c-0,-134.166 60,-242.916 60,-242.916c60,-45 117.083,-43.75 117.083,-43.75l4.167,5c-75,21.666 -109.583,54.583 -109.583,54.583c-0,0 9.166,-5 24.583,-12.083c44.583,-19.584 80,-25 94.583,-26.25c2.5,-0.417 4.584,-0.834 7.084,-0.834c25.416,-3.333 54.166,-4.166 84.166,-0.833c39.584,4.583 82.084,16.25 125.417,40c-0,-0 -32.917,-31.25 -103.75,-52.917l5.833,-6.666c0,-0 57.084,-1.25 117.084,43.75c-0,-0 60,108.75 60,242.916c-0,0 -35.417,60.417 -127.5,63.334Z" style="fill:#7289da;fill-rule:nonzero;"/></g></svg>