<?xml version="1.0" encoding="UTF-8" standalone="no"?>
<!DOCTYPE svg PUBLIC "-//W3C//DTD SVG 1.1//EN" "http://www.w3.org/Graphics/SVG/1.1/DTD/svg11.dtd">
<svg width="100%" height="100%" viewBox="0 0 384 384" version="1.1" xmlns="http://www.w3.org/2000/svg" xmlns:xlink="http://www.w3.org/1999/xlink" xml:space="preserve" xmlns:serif="http://www.serif.com/" style="fill-rule:evenodd;clip-rule:evenodd;stroke-linejoin:round;stroke-miterlimit:2;">
    <clipPath id="_clip1">
        <rect id="Git-Icon-1788C.eps" x="0.058" y="0.491" width="383.333" height="383.333"/>
    </clipPath>
    <g clip-path="url(#_clip1)">
        <g>
            <path d="M375.7,175.345L208.538,8.191C198.913,-1.438 183.3,-1.438 173.667,8.191L138.954,42.903L182.988,86.937C193.221,83.478 204.954,85.799 213.108,93.958C221.313,102.162 223.613,113.999 220.067,124.27L262.508,166.703C272.779,163.166 284.617,165.453 292.821,173.666C304.279,185.124 304.279,203.691 292.821,215.158C281.354,226.62 262.788,226.62 251.317,215.158C242.7,206.528 240.567,193.866 244.938,183.245L205.354,143.666L205.354,247.82C208.146,249.203 210.783,251.045 213.108,253.37C224.567,264.824 224.567,283.391 213.108,294.866C201.65,306.32 183.071,306.32 171.621,294.866C160.163,283.391 160.163,264.824 171.621,253.37C174.454,250.537 177.733,248.399 181.233,246.966L181.233,141.849C177.733,140.416 174.463,138.295 171.621,135.445C162.942,126.77 160.854,114.033 165.308,103.374L121.9,59.958L7.275,174.57C-2.35,184.208 -2.35,199.82 7.275,209.449L174.446,376.608C184.071,386.233 199.679,386.233 209.317,376.608L375.7,210.228C385.329,200.595 385.329,184.974 375.7,175.345Z" style="fill:#f05133;fill-rule:nonzero;"/>
        </g>
    </g>
</svg>
