<?xml version="1.0" encoding="UTF-8" standalone="no"?><!DOCTYPE svg PUBLIC "-//W3C//DTD SVG 1.1//EN" "http://www.w3.org/Graphics/SVG/1.1/DTD/svg11.dtd"><svg width="100%" height="100%" viewBox="0 0 1696 1696" version="1.1" xmlns="http://www.w3.org/2000/svg" xmlns:xlink="http://www.w3.org/1999/xlink" xml:space="preserve" xmlns:serif="http://www.serif.com/" style="fill-rule:evenodd;clip-rule:evenodd;stroke-linejoin:round;stroke-miterlimit:2;"><g><path d="M1570.34,0l-1445.26,0c-69.004,0 -125.079,54.746 -125.079,122.275l0,1451.19c0,67.529 56.075,122.366 125.079,122.366l1445.26,0c69.141,0 125.45,-54.837 125.45,-122.366l-0,-1451.19c-0,-67.529 -56.309,-122.275 -125.45,-122.275Z" style="fill:#007bb6;fill-rule:nonzero;"/><path d="M377.217,233.463c80.462,-0 145.783,65.349 145.783,145.854c-0,80.525 -65.321,145.871 -145.783,145.871c-80.78,-0 -145.917,-65.346 -145.917,-145.871c0,-80.505 65.137,-145.854 145.917,-145.854Zm-125.954,402.291l251.774,0l0,809.275l-251.774,0l-0,-809.275Z" style="fill:#fff;fill-rule:nonzero;"/><path d="M660.825,635.754l241.1,0l0,110.633l3.446,0c33.537,-63.62 115.604,-130.716 237.975,-130.716c254.667,-0 301.729,167.567 301.729,385.525l-0,443.833l-251.496,0l0,-393.55c0,-93.846 -1.612,-214.579 -130.691,-214.579c-130.876,0 -150.846,102.287 -150.846,207.862l-0,400.267l-251.217,0l0,-809.275Z" style="fill:#fff;fill-rule:nonzero;"/></g></svg>