<?xml version="1.0" encoding="UTF-8" standalone="no"?><!DOCTYPE svg PUBLIC "-//W3C//DTD SVG 1.1//EN" "http://www.w3.org/Graphics/SVG/1.1/DTD/svg11.dtd"><svg width="100%" height="100%" viewBox="0 0 192 196" version="1.1" xmlns="http://www.w3.org/2000/svg" xmlns:xlink="http://www.w3.org/1999/xlink" xml:space="preserve" xmlns:serif="http://www.serif.com/" style="fill-rule:evenodd;clip-rule:evenodd;stroke-linejoin:round;stroke-miterlimit:2;"><g><path d="M189.983,51.147c0,-25.981 -21.093,-47.075 -47.075,-47.075l-94.15,0c-25.982,0 -47.076,21.094 -47.076,47.075l0,94.151c0,25.981 21.094,47.075 47.076,47.075l94.15,-0c25.982,-0 47.075,-21.094 47.075,-47.075l0,-94.151Z" style="fill:#617;"/><path d="M145.872,77.335l0,44.176c0,7.637 -6.19,13.827 -13.826,13.827l-72.425,-0c-7.637,-0 -13.828,-6.19 -13.828,-13.827l0,-44.176l48.454,26.65c0.988,0.544 2.185,0.544 3.173,0l48.452,-26.65Zm-13.826,-21.006c7.525,-0 13.646,6.012 13.822,13.495l-50.035,27.519l-50.034,-27.52l0.006,-0.238c0.299,-7.372 6.37,-13.256 13.816,-13.256l72.425,-0Z" style="fill:#fff;fill-rule:nonzero;"/></g></svg>